<svg xmlns="http://www.w3.org/2000/svg" xmlns:xlink="http://www.w3.org/1999/xlink" viewBox="0 0 163.6 113.94"><defs><style>.cls-1{fill:url(#Naamloos_verloop_18);}.cls-2{fill:url(#Naamloos_verloop_18-2);}.cls-3{fill:url(#Naamloos_verloop_18-3);}</style><linearGradient id="Naamloos_verloop_18" x1="-2.72" y1="1.14" x2="165.32" y2="96.46" gradientUnits="userSpaceOnUse"><stop offset="0" stop-color="#00aae8"/><stop offset="1" stop-color="#b80e80"/></linearGradient><linearGradient id="Naamloos_verloop_18-2" x1="12.12" y1="38.5" x2="142.7" y2="38.5" xlink:href="#Naamloos_verloop_18"/><linearGradient id="Naamloos_verloop_18-3" x1="12.12" y1="56.64" x2="142.7" y2="56.64" xlink:href="#Naamloos_verloop_18"/></defs><title>Middel 3</title><g id="Laag_2" data-name="Laag 2"><g id="Laag_1-2" data-name="Laag 1"><path class="cls-1" d="M152.17,3.31a8.37,8.37,0,0,1,8.13,8.54V86.32a8.38,8.38,0,0,1-8.13,8.55H107.54s-.15,12.78-.15,14.4c0,.94-.3,1.36-.78,1.36a1.66,1.66,0,0,1-.9-.35c-.87-.59-22.14-15.41-22.14-15.41H11.44a8.38,8.38,0,0,1-8.13-8.55V11.85a8.37,8.37,0,0,1,8.13-8.54H152.17m0-3.31H11.44A11.66,11.66,0,0,0,0,11.85V86.32A11.66,11.66,0,0,0,11.44,98.17h71.1c4,2.81,20.53,14.32,21.32,14.85a4.84,4.84,0,0,0,2.75.92c2,0,4.09-1.46,4.09-4.67,0-1.07.07-7.2.11-11.1h41.36A11.66,11.66,0,0,0,163.6,86.32V11.85A11.66,11.66,0,0,0,152.17,0Z"/><path class="cls-2" d="M25.55,42.79h.07a4.3,4.3,0,1,0-.07,0Z"/><path class="cls-3" d="M145.6,72.22h-.08c-1,0-1.17,1-1.39,1.61-1.69,4.41-2.79,5.73-9.54,5.73h-5.72c-1.25,0-2.35,0-2.35-.59,0-.44.59-1.1,1.1-1.84l17.76-24.87a5,5,0,0,0,1-2c0-.59-.29-.59-1.54-.59h-9.17s-18.86-.22-20.28-.22c-.58,0-1.46.07-1.46,1s1.39,1,2,1a2.16,2.16,0,0,1,2.13,2.27,10.13,10.13,0,0,1-1.1,4L111.6,70.46c-.44,1-.88,2.42-1.25,2.42s-.81-1.39-1.18-2.35l-6.45-14.6a10.34,10.34,0,0,1-1-2.94c0-1.17,1.4-1.61,2.28-1.61.66-.07,1.54-.15,1.54-1s-.73-1-1.69-1c-5.65,0-15.94.22-22,.22-4.19,0-21.36-.12-23.26-.26-1.1,0-1.77,0-1.77.88,0,1.32,1.84,1.24,2.65,1.24,1,.15,2.49.22,2.49,1.47s-1.83,2.64-2.93,3.52L50.52,63.3c-.66.58-1.47,1.32-1.91,1.32s-.44-.88-.44-1.69V32.26c0-1.18-.07-1.54-.8-1.54a3.73,3.73,0,0,0-1.76.81A23.28,23.28,0,0,1,37.39,34c-.88.07-1.54.36-1.54,1s.58.88,1.61,1c2.49.15,3.52.22,3.52,4V75c0,3.3-.22,4.77-3.37,4.84-.48,0-4.87.14-5.16.12-3.16-.22-3.23-1.91-3.23-5.73V53c0-1.24.07-2.34.07-3.44,0-.81-.07-1.25-.73-1.25s-.88.37-1.54,1a21.48,21.48,0,0,1-7.85,4c-1.11.22-2.13.3-2.13,1.33,0,.8.51.8,2.05.88,2.64.07,2.94.88,2.94,5.21V74c0,4.4,0,5.87-3.38,5.94-.95.08-2.13.08-2.13,1.25,0,.73.66.88,1.25.88,2.2,0,4.4-.29,8.15-.29,2.49,0,6.9.27,9.18.27h0c2.57,0,6.84-.32,9.4-.32,2.28,0,4.77.3,7.12.3.74,0,1.32-.22,1.32-1s-1.46-1-2.2-1.1c-1.39-.07-2.57-.95-2.57-3.59V69c0-1.76,2.86-3.6,3.53-3.6s1.46,1.25,2.42,2.5l5.72,7.92c.51.73,1.54,2.06,1.54,2.86,0,1.1-1,1.25-1.91,1.32-.66.08-1.68.22-1.68,1.1s.58,1,1.1,1c2.64,0,5.35-.3,7.92-.3s5.28.3,7.93.3c.66,0,1.39-.15,1.39-1s-1.32-1.1-2.28-1.17c-1.46,0-2.71-1.18-4.76-4C65.78,71.44,62.41,67,59,62.56c-.51-.73-1.17-1.32-1.17-1.91s1.17-1.46,1.69-1.9c1.68-1.25,3.59-2.72,5.21-4,2-1.45,3.57-2.62,5.73-3.12,1.53.62,2.26,2.22,3.24,4.49L84.89,81a1.91,1.91,0,0,0,2,1.55c1.54,0,1.76-.52,2.06-1.33l8.43-19.51h.15l8.29,19.37A1.89,1.89,0,0,0,108,82.57a1.74,1.74,0,0,0,1.84-1.4L120.18,56.3c.21-.46.42-.91.64-1.34a7.45,7.45,0,0,1,6.51-3.07h7.92c.44,0,1.25,0,1.25.52a3.24,3.24,0,0,1-.88,1.61L117.49,79.26a4.6,4.6,0,0,0-.95,1.76c0,.59.59.81,1.54.81,3.82,0,7.41-.07,12.55-.07,6,0,10.49.07,14.31.07,1.24.07,1.32-.37,1.39-2.35s.22-3.67.22-5.43C146.55,73.25,146.4,72.22,145.6,72.22ZM94.87,61.8l-4,8.88C90.39,71.78,90,73,89.58,73s-.8-1.25-1.32-2.35L82.32,57.47a13.8,13.8,0,0,1-1.39-4.26c0-1.46,1.76-1.83,3.52-1.83H89c3.22,0,3.81.22,5.28,3.3.66,1.32,1.61,3.16,1.61,4A12.94,12.94,0,0,1,94.87,61.8Z"/></g></g></svg>